<?xml version="1.0" encoding="UTF-8"?>
<svg version="1.1" xmlns="http://www.w3.org/2000/svg" width="443" height="347">
<path d="M0 0 C146.19 0 292.38 0 443 0 C443 114.51 443 229.02 443 347 C296.81 347 150.62 347 0 347 C0 232.49 0 117.98 0 0 Z " fill="#FEFEFE" transform="translate(0,0)"/>
<path d="M0 0 C1.18980469 -0.00773437 2.37960937 -0.01546875 3.60546875 -0.0234375 C11.30198825 -0.00661451 18.58047629 0.73036434 26.125 2.25 C23.17500912 4.49504989 20.17459802 6.45913472 17 8.375 C6.98809926 14.73409009 -2.14195895 23.06272091 -8.1328125 33.42578125 C-10.7147613 36.12930163 -13.77626009 36.43987415 -17.3125 37.125 C-24.96682295 38.79611244 -30.96740552 41.45082304 -37.875 45.25 C-30.285 43.93 -22.695 42.61 -14.875 41.25 C-16.24853328 45.37059985 -17.14110971 48.02821856 -19.30078125 51.52734375 C-20.00170898 52.66913086 -20.00170898 52.66913086 -20.71679688 53.83398438 C-21.20212891 54.61064453 -21.68746094 55.38730469 -22.1875 56.1875 C-22.66123047 56.96029297 -23.13496094 57.73308594 -23.62304688 58.52929688 C-25.01702172 60.78520966 -26.44419063 63.01733334 -27.875 65.25 C-28.28983643 65.94343506 -28.70467285 66.63687012 -29.13208008 67.35131836 C-31.08637025 70.43162396 -32.18351679 72.06900775 -35.78515625 73.01171875 C-36.82542969 72.98722656 -37.86570312 72.96273437 -38.9375 72.9375 C-47.79509851 73.14863458 -55.3893454 75.50366103 -62.875 80.25 C-61.80185547 80.0334375 -61.80185547 80.0334375 -60.70703125 79.8125 C-53.01800048 78.38013204 -45.68549489 78.0232437 -37.875 78.25 C-39.78363003 90.1005984 -53.41093287 102.35551239 -62.59375 109.30859375 C-83.70768374 123.25 -83.70768374 123.25 -92.875 123.25 C-86.54227449 97.90662583 -74.72840527 74.5919981 -59.875 53.25 C-58.53231883 51.2560349 -57.20285022 49.25390182 -55.875 47.25 C-90.4034343 82.5865466 -106.78539522 135.91809984 -120.875 182.25 C-124.60779737 176.65080395 -125.85333188 167.85374018 -124.875 161.25 C-123.55277284 158.98142966 -122.06343583 156.88986353 -120.53125 154.7578125 C-112.53942388 142.65698144 -110.62147857 128.45209543 -110.0625 114.3125 C-108.3009135 82.47217877 -94.46858169 50.30228047 -71.05859375 28.1640625 C-57.41353105 16.20327409 -41.7540102 6.32650295 -23.875 2.25 C-23.18019531 2.07629883 -22.48539062 1.90259766 -21.76953125 1.72363281 C-14.50313599 0.05200687 -7.43207574 -0.04800049 0 0 Z " fill="#053A4D" transform="translate(291.875,25.75)"/>
<path d="M0 0 C0.9075 0.165 1.815 0.33 2.75 0.5 C5.97660886 0.99640136 7.8620042 0.64369145 11 0 C12.67225729 0.30404678 14.34080104 0.63128912 16 1 C16.33 0.67 16.66 0.34 17 0 C20.61852861 -0.41119643 22.49870446 -0.29930292 25.65625 1.5859375 C28.72934751 4.75122794 28.65708923 6.58463026 28.75 10.9375 C28.87945214 15.93997062 28.87945214 15.93997062 29.578125 20.87890625 C29.71734375 21.57886719 29.8565625 22.27882813 30 23 C29.505 23.495 29.505 23.495 29 24 C26.69 24 24.38 24 22 24 C22 18.06 22 12.12 22 6 C20.35 6 18.7 6 17 6 C16.67 10.29 16.34 14.58 16 19 C16.66 19 17.32 19 18 19 C17.505 21.475 17.505 21.475 17 24 C14.36 24 11.72 24 9 24 C8.505 22.02 8.505 22.02 8 20 C8.99 19.67 9.98 19.34 11 19 C10.67 14.71 10.34 10.42 10 6 C8.35 6.33 6.7 6.66 5 7 C4.97287847 8.916588 4.95354903 10.8332873 4.9375 12.75 C4.92589844 13.81734375 4.91429687 14.8846875 4.90234375 15.984375 C4.98519265 18.54274918 5.36493778 20.55129162 6 23 C5 24 5 24 1.6875 24.0625 C-0.1378125 24.0315625 -0.1378125 24.0315625 -2 24 C-3.32 24 -4.64 24 -6 24 C-7.66666667 24 -9.33333333 24 -11 24 C-11.33 23.34 -11.66 22.68 -12 22 C-12.53625 22.33 -13.0725 22.66 -13.625 23 C-16.61641148 24.25954167 -18.78432784 24.34952958 -22 24 C-24 21 -24 21 -23.9375 18.0625 C-22.7561682 14.20348278 -21.36985926 13.14445589 -18 11 C-15.1875 9.75 -15.1875 9.75 -13 9 C-13 7.35 -13 5.7 -13 4 C-14.32 4 -15.64 4 -17 4 C-17.33 5.65 -17.66 7.3 -18 9 C-19.65 9 -21.3 9 -23 9 C-23.36576869 4.48885276 -23.36576869 4.48885276 -21.76953125 2.35546875 C-19.54132857 0.64865566 -18.28233381 0.59717666 -15.5 0.625 C-14.7265625 0.61726563 -13.953125 0.60953125 -13.15625 0.6015625 C-11 1 -11 1 -9.26171875 2.04296875 C-7.32351028 5.0492921 -7.42603861 8.21321858 -7.3125 11.6875 C-7.26125977 12.7403418 -7.26125977 12.7403418 -7.20898438 13.81445312 C-7.12670053 15.54241387 -7.0616676 17.27118072 -7 19 C-5.68 19 -4.36 19 -3 19 C-2.34 19 -1.68 19 -1 19 C-1 14.38 -1 9.76 -1 5 C-1.66 5 -2.32 5 -3 5 C-1.125 1.125 -1.125 1.125 0 0 Z " fill="#124557" transform="translate(395,256)"/>
<path d="M0 0 C0.99 0.495 0.99 0.495 2 1 C-29.78659139 33.69622357 -29.78659139 33.69622357 -50.0625 34.5 C-59.22945605 34.11216724 -65.93108191 30.11679649 -73.5625 25.4375 C-83.37276861 19.43566715 -91.23922817 16.73690995 -103 18 C-110.22886759 19.77383822 -116.65690468 23.17848084 -123 27 C-120.9082775 20.72483249 -112.68269465 16.55804028 -107.07421875 13.30078125 C-100.01702237 9.81710157 -94.7347018 8.71861927 -87.11328125 10.78125 C-78.83127016 13.63360314 -71.81510045 18.01050362 -64.53125 22.79296875 C-57.78676785 27.12247393 -51.95561025 28.02594974 -44 27 C-28.90676998 22.45950549 -17.0841983 13.77148723 -5 4 C-3.33376865 2.6661227 -1.66727685 1.33257024 0 0 Z " fill="#0DB3EF" transform="translate(297,179)"/>
<path d="M0 0 C2.70894767 -0.08144943 5.41541263 -0.14070614 8.125 -0.1875 C8.88554687 -0.21263672 9.64609375 -0.23777344 10.4296875 -0.26367188 C15.39444307 -0.3278713 18.67806571 0.28729656 23 3 C25 5 25 5 25.375 8.8125 C25.28902761 11.97055235 24.97814736 13.03723043 23.3125 15.875 C19.84907986 19.05760229 17.3771345 19.94803266 12.6875 20.125 C11.800625 20.08375 10.91375 20.0425 10 20 C10 23.63 10 27.26 10 31 C11.65 31.33 13.3 31.66 15 32 C14.67 33.32 14.34 34.64 14 36 C9.05 36 4.1 36 -1 36 C-1 34.68 -1 33.36 -1 32 C0.65 32 2.3 32 4 32 C4 22.76 4 13.52 4 4 C2.35 4 0.7 4 -1 4 C-0.67 2.68 -0.34 1.36 0 0 Z " fill="#0D4153" transform="translate(125,244)"/>
<path d="M0 0 C3.04263267 -0.10845027 6.08136204 -0.18752063 9.125 -0.25 C9.9809375 -0.28351563 10.836875 -0.31703125 11.71875 -0.3515625 C17.48461373 -0.4402681 20.59301586 0.19844819 25 4 C26.45147903 6.90295805 26.37239025 8.77261779 26 12 C23.53308581 15.5633205 21.26248906 18.74632675 17 20 C14.66796188 20.0777346 12.33160941 20.08967728 10 20 C10 23.63 10 27.26 10 31 C11.65 31.33 13.3 31.66 15 32 C15 33.32 15 34.64 15 36 C10.05 36 5.1 36 0 36 C0.33 34.35 0.66 32.7 1 31 C1.66 31 2.32 31 3 31 C3.66 22.09 4.32 13.18 5 4 C3.35 4 1.7 4 0 4 C0 2.68 0 1.36 0 0 Z " fill="#0E4254" transform="translate(252,244)"/>
<path d="M0 0 C3.6607033 0.06583999 4.20406854 0.40018069 7.25 2.875 C10.03132854 6.82692137 9.89416435 10.7909278 9.25 15.4375 C8.4561945 18.48042108 7.68960068 19.9653363 5.5625 22.25 C2.24060274 23.95583914 -0.06514818 23.89002566 -3.75 23.4375 C-6.50329021 21.64187595 -8.27627461 20.38495078 -9.75 17.4375 C-10.37165748 11.92251005 -10.81404786 7.80166392 -7.3125 3.3125 C-6.466875 2.69375 -5.62125 2.075 -4.75 1.4375 C-3.75 0.4375 -3.75 0.4375 0 0 Z " fill="#114456" transform="translate(345.75,256.5625)"/>
<path d="M0 0 C2.31 0 4.62 0 7 0 C7 4.29 7 8.58 7 13 C8.0725 12.7525 9.145 12.505 10.25 12.25 C14 12 14 12 16.375 13.8125 C19.41963108 17.91104184 19.31720541 21.67085346 19.5625 26.625 C19.60568359 27.42679687 19.64886719 28.22859375 19.69335938 29.0546875 C19.79951457 31.0362511 19.90026855 33.01810271 20 35 C17.03 35 14.06 35 11 35 C11.33 34.01 11.66 33.02 12 32 C12.66 32 13.32 32 14 32 C14 27.38 14 22.76 14 18 C11.69 17.67 9.38 17.34 7 17 C7 21.95 7 26.9 7 32 C7.66 32 8.32 32 9 32 C9 32.99 9 33.98 9 35 C5.37 35 1.74 35 -2 35 C-1.67 34.01 -1.34 33.02 -1 32 C-0.01 32 0.98 32 2 32 C2 22.76 2 13.52 2 4 C1.01 3.67 0.02 3.34 -1 3 C-0.67 2.01 -0.34 1.02 0 0 Z " fill="#1F4F60" transform="translate(49,244)"/>
<path d="M0 0 C2 2 2 2 2.1875 5.5 C2 9 2 9 1 11 C0.34 11 -0.32 11 -1 11 C-1.680625 9.329375 -1.680625 9.329375 -2.375 7.625 C-3.72465986 4.03800992 -3.72465986 4.03800992 -6 2 C-8.78237655 2.40528901 -8.78237655 2.40528901 -11 4 C-11.26293056 8.03160191 -11.29404844 9.55892734 -9 13 C-6.65910493 14.15757241 -6.65910493 14.15757241 -4 15.0625 C0.79954442 16.79954442 0.79954442 16.79954442 3 19 C3.64518662 23.26493496 3.44786488 26.99763574 1.6875 30.9375 C-0.2895194 33.35385704 -1.92635713 34.84518633 -5.0859375 35.30078125 C-8.6370631 35.31896107 -11.63245788 35.10501203 -15.0625 34.125 C-17.48233957 31.47098241 -17.29257954 30.33344169 -17.3125 26.8125 C-17.23210847 25.20696626 -17.1352403 23.60184626 -17 22 C-12.80219635 23.79163991 -11.85377364 25.85107805 -10 30 C-8.88833136 31.33187793 -8.88833136 31.33187793 -6.0625 31.1875 C-2.89107141 31.33278733 -2.89107141 31.33278733 -1 29 C-0.93051435 25.99706929 -0.93051435 25.99706929 -2 23 C-4.21470259 21.25508281 -6.48380502 20.23436439 -9.0390625 19.07421875 C-9.74804688 18.74035156 -10.45703125 18.40648437 -11.1875 18.0625 C-11.86167969 17.76472656 -12.53585938 17.46695312 -13.23046875 17.16015625 C-15.47972437 15.68547873 -16.11097414 14.52501675 -17 12 C-17.30595769 7.54400084 -16.73127194 4.02378071 -14.125 0.375 C-9.42949913 -1.69102038 -4.9470877 -1.13121812 0 0 Z " fill="#114456" transform="translate(42,245)"/>
<path d="M0 0 C0.33 1.32 0.66 2.64 1 4 C0.34 4 -0.32 4 -1 4 C-0.34 7.3 0.32 10.6 1 14 C1.99 14 2.98 14 4 14 C4.66 10.7 5.32 7.4 6 4 C5.34 4 4.68 4 4 4 C4.33 2.68 4.66 1.36 5 0 C7.31 0 9.62 0 12 0 C12.33 1.32 12.66 2.64 13 4 C12.34 4 11.68 4 11 4 C10.44892578 5.85431641 10.44892578 5.85431641 9.88671875 7.74609375 C7.84991046 13.85651862 4.84642471 19.39845917 1.8125 25.0625 C1.25369141 26.11888672 0.69488281 27.17527344 0.11914062 28.26367188 C-1.24784131 30.84574886 -2.62097099 33.42434308 -4 36 C-5.98 35.67 -7.96 35.34 -10 35 C-10 33.35 -10 31.7 -10 30 C-8.865625 29.67 -7.73125 29.34 -6.5625 29 C-4.62137409 28.21871696 -4.62137409 28.21871696 -3 27 C-0.78558612 20.58985457 -2.77812365 15.72977056 -5.08984375 9.5390625 C-6 7 -6 7 -6 5 C-6.99 4.67 -7.98 4.34 -9 4 C-9 3.01 -9 2.02 -9 1 C-6.04335481 -0.4783226 -3.25770263 -0.06032783 0 0 Z " fill="#134557" transform="translate(321,256)"/>
<path d="M0 0 C0.7734375 -0.00773437 1.546875 -0.01546875 2.34375 -0.0234375 C4.5 0.375 4.5 0.375 6.23828125 1.41796875 C8.17648972 4.4242921 8.07396139 7.58821858 8.1875 11.0625 C8.23874023 12.1153418 8.23874023 12.1153418 8.29101562 13.18945312 C8.37329947 14.91741387 8.4383324 16.64618072 8.5 18.375 C9.49 18.045 10.48 17.715 11.5 17.375 C11.83 18.365 12.16 19.355 12.5 20.375 C11.3125 21.875 11.3125 21.875 9.5 23.375 C6.8125 23.5625 6.8125 23.5625 4.5 23.375 C4.17 22.715 3.84 22.055 3.5 21.375 C2.96375 21.705 2.4275 22.035 1.875 22.375 C-1.11641148 23.63454167 -3.28432784 23.72452958 -6.5 23.375 C-8.5 20.375 -8.5 20.375 -8.4375 17.4375 C-7.2561682 13.57848278 -5.86985926 12.51945589 -2.5 10.375 C0.3125 9.125 0.3125 9.125 2.5 8.375 C2.5 6.725 2.5 5.075 2.5 3.375 C1.18 3.375 -0.14 3.375 -1.5 3.375 C-1.83 5.025 -2.16 6.675 -2.5 8.375 C-4.15 8.375 -5.8 8.375 -7.5 8.375 C-7.86576869 3.86385276 -7.86576869 3.86385276 -6.26953125 1.73046875 C-4.04132857 0.02365566 -2.78233381 -0.02782334 0 0 Z " fill="#174859" transform="translate(379.5,256.625)"/>
<path d="M0 0 C2.31 0 4.62 0 7 0 C7.33 1.32 7.66 2.64 8 4 C7.34 4 6.68 4 6 4 C6.66 7.3 7.32 10.6 8 14 C8.99 13.67 9.98 13.34 11 13 C12.02281518 10.90280128 12.02281518 10.90280128 12.6875 8.4375 C12.93886719 7.61121094 13.19023437 6.78492188 13.44921875 5.93359375 C13.63097656 5.29550781 13.81273437 4.65742188 14 4 C13.34 4 12.68 4 12 4 C12.33 2.68 12.66 1.36 13 0 C15.31 0 17.62 0 20 0 C20.6875 1.8125 20.6875 1.8125 21 4 C20.56421631 4.43465576 20.12843262 4.86931152 19.67944336 5.31713867 C17.60562763 7.39517499 16.67029283 9.44955341 15.44140625 12.11328125 C14.97283203 13.11423828 14.50425781 14.11519531 14.02148438 15.14648438 C13.29928711 16.71366211 13.29928711 16.71366211 12.5625 18.3125 C6.79729083 30.78433577 6.79729083 30.78433577 3 36 C1.35 35.67 -0.3 35.34 -2 35 C-2 33.35 -2 31.7 -2 30 C-1.030625 29.731875 -0.06125 29.46375 0.9375 29.1875 C1.948125 28.795625 2.95875 28.40375 4 28 C6.28742855 21.13771434 4.70735295 14.51350606 2 8 C0.02347334 5.42790821 0.02347334 5.42790821 -2 4 C-1.34 2.68 -0.68 1.36 0 0 Z " fill="#114456" transform="translate(186,256)"/>
<path d="M0 0 C0.78503906 -0.01675781 1.57007813 -0.03351563 2.37890625 -0.05078125 C3.39791016 0.12904297 3.39791016 0.12904297 4.4375 0.3125 C6.89141569 3.99337353 6.66552759 6.75605588 6.5625 11 C6.55347656 11.70189453 6.54445312 12.40378906 6.53515625 13.12695312 C6.51163704 14.85561525 6.47576713 16.58410145 6.4375 18.3125 C7.7575 17.9825 9.0775 17.6525 10.4375 17.3125 C10.1075 19.2925 9.7775 21.2725 9.4375 23.3125 C5.81221432 23.51390476 3.57248292 23.17026765 0.4375 21.3125 C-0.2225 21.9725 -0.8825 22.6325 -1.5625 23.3125 C-4.6875 23.4375 -4.6875 23.4375 -7.5625 23.3125 C-9.12680248 20.18389505 -8.91877284 17.75647075 -8.5625 14.3125 C-5.55335106 11.04542401 -2.94889981 9.81380284 1.4375 9.3125 C1.4375 7.3325 1.4375 5.3525 1.4375 3.3125 C0.1175 3.6425 -1.2025 3.9725 -2.5625 4.3125 C-2.8925 5.6325 -3.2225 6.9525 -3.5625 8.3125 C-5.2125 8.3125 -6.8625 8.3125 -8.5625 8.3125 C-8.25 5.4375 -8.25 5.4375 -7.5625 2.3125 C-4.45212372 0.23891581 -3.56688748 0.01762877 0 0 Z " fill="#134557" transform="translate(216.5625,256.6875)"/>
<path d="M0 0 C0.99128906 -0.00257813 1.98257813 -0.00515625 3.00390625 -0.0078125 C5.4375 0.125 5.4375 0.125 6.4375 1.125 C6.47813832 2.79117115 6.480221 4.45888095 6.4375 6.125 C4.10416667 6.125 1.77083333 6.125 -0.5625 6.125 C-0.2325 11.075 0.0975 16.025 0.4375 21.125 C-3.32937864 23.00843932 -4.59208963 23.34557835 -8.5625 23.125 C-8.5625 22.135 -8.5625 21.145 -8.5625 20.125 C-7.9025 20.125 -7.2425 20.125 -6.5625 20.125 C-6.5625 15.505 -6.5625 10.885 -6.5625 6.125 C-7.2225 6.125 -7.8825 6.125 -8.5625 6.125 C-8.1875 3.6875 -8.1875 3.6875 -7.5625 1.125 C-4.93920316 -0.18664842 -2.92551375 -0.00762846 0 0 Z " fill="#18495B" transform="translate(163.5625,256.875)"/>
<path d="M0 0 C1.3303125 0.2784375 1.3303125 0.2784375 2.6875 0.5625 C5.91821398 1.17285221 5.91821398 1.17285221 8.75 0.4375 C9.4925 0.293125 10.235 0.14875 11 0 C11.66 0.66 12.32 1.32 13 2 C12.625 4.625 12.625 4.625 12 7 C11.01 7 10.02 7 9 7 C9 6.34 9 5.68 9 5 C8.01 5.66 7.02 6.32 6 7 C5.63464053 9.53074273 5.63464053 9.53074273 5.8125 12.375 C5.83957031 13.33148438 5.86664063 14.28796875 5.89453125 15.2734375 C5.92933594 16.17320312 5.96414063 17.07296875 6 18 C6 19.32 6 20.64 6 22 C2.04 22.495 2.04 22.495 -2 23 C-1.75830078 22.19755859 -1.75830078 22.19755859 -1.51171875 21.37890625 C-0.8971613 18.5219178 -0.83060199 15.85916175 -0.8125 12.9375 C-0.79832031 11.89464844 -0.78414063 10.85179687 -0.76953125 9.77734375 C-0.79204696 6.7876052 -0.79204696 6.7876052 -3 4 C-2.01 2.68 -1.02 1.36 0 0 Z " fill="#0D4053" transform="translate(285,257)"/>
<path d="M0 0 C1.3303125 0.2784375 1.3303125 0.2784375 2.6875 0.5625 C5.91821398 1.17285221 5.91821398 1.17285221 8.75 0.4375 C9.4925 0.293125 10.235 0.14875 11 0 C11.66 0.66 12.32 1.32 13 2 C12.625 4.625 12.625 4.625 12 7 C11.01 7 10.02 7 9 7 C9 6.34 9 5.68 9 5 C8.01 5.66 7.02 6.32 6 7 C5.63464053 9.53074273 5.63464053 9.53074273 5.8125 12.375 C5.83957031 13.33148438 5.86664063 14.28796875 5.89453125 15.2734375 C5.92933594 16.17320312 5.96414062 17.07296875 6 18 C6 19.32 6 20.64 6 22 C2.04 22.495 2.04 22.495 -2 23 C-1.75830078 22.19755859 -1.75830078 22.19755859 -1.51171875 21.37890625 C-0.8971613 18.5219178 -0.83060199 15.85916175 -0.8125 12.9375 C-0.79832031 11.89464844 -0.78414063 10.85179687 -0.76953125 9.77734375 C-0.79204696 6.7876052 -0.79204696 6.7876052 -3 4 C-2.01 2.68 -1.02 1.36 0 0 Z " fill="#0D4053" transform="translate(74,257)"/>
<path d="M0 0 C2.4375 1.5625 2.4375 1.5625 4 4 C3.93583987 7.65712768 3.81715074 10.01941911 1.4375 12.875 C0.7259375 13.431875 0.7259375 13.431875 0 14 C0 14.33 0 14.66 0 15 C-1.65 15 -3.3 15 -5 15 C-5 14.34 -5 13.68 -5 13 C-5.639375 12.690625 -6.27875 12.38125 -6.9375 12.0625 C-9 11 -9 11 -10 10 C-10.3125 6.625 -10.3125 6.625 -10 3 C-7.15718952 -0.3895048 -4.25588004 -0.62064917 0 0 Z " fill="#13B4F0" transform="translate(280,310)"/>
<path d="M0 0 C0.99 0.33 1.98 0.66 3 1 C3 1.99 3 2.98 3 4 C4.98 4 6.96 4 9 4 C9 5.32 9 6.64 9 8 C6.69 8 4.38 8 2 8 C2.33 12.29 2.66 16.58 3 21 C4.65 21.33 6.3 21.66 8 22 C7.34 23.32 6.68 24.64 6 26 C-0.875 25.125 -0.875 25.125 -2 24 C-2.21259101 21.57882455 -2.37664599 19.17596222 -2.5 16.75 C-2.76579386 11.41834631 -2.76579386 11.41834631 -3.65234375 6.16015625 C-3.76707031 5.44730469 -3.88179688 4.73445313 -4 4 C-2.0625 1.6875 -2.0625 1.6875 0 0 Z " fill="#124456" transform="translate(361,254)"/>
<path d="M0 0 C2.67548031 4.01322046 2.58740465 7.28373655 2 12 C0.5 14.5625 0.5 14.5625 -1 16 C-3.55687669 15.65447612 -5.57501375 15.24912987 -7.8125 13.9375 C-9.72915424 10.81032729 -9.4190327 7.5227156 -9 4 C-7.20073352 -1.01224235 -4.9709408 -1.49128224 0 0 Z " fill="#F3F5F6" transform="translate(349,261)"/>
<path d="M0 0 C8.3984375 -0.1953125 8.3984375 -0.1953125 11 0 C13 2 13 2 13.23046875 4.34765625 C13.20919922 5.69150391 13.20919922 5.69150391 13.1875 7.0625 C13.17783203 8.41021484 13.17783203 8.41021484 13.16796875 9.78515625 C13 12 13 12 12 13 C7.99779347 13.14355117 4.00558317 13.04216403 0 13 C0 8.71 0 4.42 0 0 Z " fill="#20B9F1" transform="translate(34,310)"/>
<path d="M0 0 C1.98 0 3.96 0 6 0 C5.67 1.98 5.34 3.96 5 6 C5.99 6 6.98 6 8 6 C7.67 4.02 7.34 2.04 7 0 C8.98 0 10.96 0 13 0 C13.08121924 1.60332791 13.13929134 3.20784026 13.1875 4.8125 C13.22230469 5.70582031 13.25710938 6.59914063 13.29296875 7.51953125 C13 10 13 10 11.75 11.8125 C8.65083803 13.91550277 5.64934583 13.17947602 2 13 C0.24252386 8.49646738 -0.19294408 4.82360189 0 0 Z " fill="#1AB7F0" transform="translate(409,310)"/>
<path d="M0 0 C1.65 0 3.3 0 5 0 C5.66 0.99 6.32 1.98 7 3 C7.33 2.01 7.66 1.02 8 0 C9.32 0 10.64 0 12 0 C12 4.29 12 8.58 12 13 C10.02 13 8.04 13 6 13 C5.34 11.68 4.68 10.36 4 9 C4 10.32 4 11.64 4 13 C2.68 13 1.36 13 0 13 C0 8.71 0 4.42 0 0 Z " fill="#1EB8F0" transform="translate(227,310)"/>
<path d="M0 0 C1.98 0 3.96 0 6 0 C6 3.63 6 7.26 6 11 C6.66 11 7.32 11 8 11 C8 7.37 8 3.74 8 0 C9.98 0 11.96 0 14 0 C13.88610125 1.79240663 13.75852313 3.58394835 13.625 5.375 C13.55539062 6.37273437 13.48578125 7.37046875 13.4140625 8.3984375 C13 11 13 11 11 13 C9.125 13.265625 9.125 13.265625 7 13.25 C6.29875 13.25515625 5.5975 13.2603125 4.875 13.265625 C3 13 3 13 1 11 C0.5859375 8.3984375 0.5859375 8.3984375 0.375 5.375 C0.30023438 4.37210937 0.22546875 3.36921875 0.1484375 2.3359375 C0.09945313 1.56507813 0.05046875 0.79421875 0 0 Z " fill="#10B4F0" transform="translate(295,310)"/>
<path d="M0 0 C3 0.125 3 0.125 4 1.125 C4.21187212 3.92053492 4.37648719 6.70037631 4.5 9.5 C4.69815991 15.39688313 4.69815991 15.39688313 6 21.125 C2.7 21.125 -0.6 21.125 -4 21.125 C-3.505 19.64 -3.505 19.64 -3 18.125 C-2.34 18.125 -1.68 18.125 -1 18.125 C-1.11402064 15.85358891 -1.24158505 13.58285448 -1.375 11.3125 C-1.44460938 10.04792969 -1.51421875 8.78335937 -1.5859375 7.48046875 C-1.76102939 3.99744766 -1.76102939 3.99744766 -4 1.125 C-3 0.125 -3 0.125 0 0 Z " fill="#1E4E5F" transform="translate(304,258.875)"/>
<path d="M0 0 C0.94684584 3.95012251 1.0745678 7.57037571 1 11.625 C0.90824838 16.39873687 0.90824838 16.39873687 2 21 C-1.3 21 -4.6 21 -8 21 C-8 20.34 -8 19.68 -8 19 C-7.01 18.67 -6.02 18.34 -5 18 C-4.91873913 15.91731407 -4.86069161 13.83371342 -4.8125 11.75 C-4.77769531 10.58984375 -4.74289063 9.4296875 -4.70703125 8.234375 C-5.02017066 4.77731593 -5.65709108 3.48434437 -8 1 C-5.29120665 -0.35439668 -2.99066732 -0.06501451 0 0 Z " fill="#0D4052" transform="translate(180,259)"/>
<path d="M0 0 C1.134375 0.020625 2.26875 0.04125 3.4375 0.0625 C3.49808594 1.32707031 3.55867188 2.59164063 3.62109375 3.89453125 C3.70550904 5.55469871 3.79015655 7.21485437 3.875 8.875 C3.91431641 9.70837891 3.95363281 10.54175781 3.99414062 11.40039062 C4.05698242 12.60405273 4.05698242 12.60405273 4.12109375 13.83203125 C4.15775146 14.57042236 4.19440918 15.30881348 4.23217773 16.06958008 C4.38592141 18.269995 4.38592141 18.269995 5.4375 21.0625 C2.1375 21.0625 -1.1625 21.0625 -4.5625 21.0625 C-4.5625 20.4025 -4.5625 19.7425 -4.5625 19.0625 C-3.5725 18.7325 -2.5825 18.4025 -1.5625 18.0625 C-1.48123913 15.97981407 -1.42319161 13.89621342 -1.375 11.8125 C-1.34019531 10.65234375 -1.30539063 9.4921875 -1.26953125 8.296875 C-1.58267066 4.83981593 -2.21959108 3.54684437 -4.5625 1.0625 C-3.5625 0.0625 -3.5625 0.0625 0 0 Z " fill="#0F4254" transform="translate(93.5625,258.9375)"/>
<path d="M0 0 C2.31 0 4.62 0 7 0 C7.99 4.29 8.98 8.58 10 13 C8.02 13 6.04 13 4 13 C4 12.34 4 11.68 4 11 C3.01 11 2.02 11 1 11 C1 11.66 1 12.32 1 13 C-0.32 12.67 -1.64 12.34 -3 12 C-2.690625 11.319375 -2.38125 10.63875 -2.0625 9.9375 C-0.86629351 6.63034088 -0.40994603 3.48454122 0 0 Z " fill="#18B6F0" transform="translate(323,310)"/>
<path d="M0 0 C0.886875 0.4125 1.77375 0.825 2.6875 1.25 C2.6875 2.9 2.6875 4.55 2.6875 6.25 C1.6975 6.58 0.7075 6.91 -0.3125 7.25 C0.0175 8.24 0.3475 9.23 0.6875 10.25 C-1.3125 12.25 -1.3125 12.25 -4.3125 12.5625 C-5.3025 12.459375 -6.2925 12.35625 -7.3125 12.25 C-9.3125 9.25 -9.3125 9.25 -9.25 6.3125 C-7.70546292 1.26701222 -5.35897379 -1.21335256 0 0 Z " fill="#18495A" transform="translate(380.3125,267.75)"/>
<path d="M0 0 C1.98 0 3.96 0 6 0 C6.66 1.98 7.32 3.96 8 6 C8.33 4.02 8.66 2.04 9 0 C10.32 0 11.64 0 13 0 C12.01 4.29 11.02 8.58 10 13 C7.69 13 5.38 13 3 13 C2.01 8.71 1.02 4.42 0 0 Z " fill="#12B4F0" transform="translate(143,310)"/>
<path d="M0 0 C3.63 0 7.26 0 11 0 C11 0.99 11 1.98 11 3 C10.01 3.495 10.01 3.495 9 4 C8.34786708 6.02463255 8.34786708 6.02463255 8 8 C7.34 7.67 6.68 7.34 6 7 C6 8.32 6 9.64 6 11 C7.65 10.67 9.3 10.34 11 10 C11 10.99 11 11.98 11 13 C7.37 13 3.74 13 0 13 C0 8.71 0 4.42 0 0 Z " fill="#18B6F0" transform="translate(167,310)"/>
<path d="M0 0 C3.3 0 6.6 0 10 0 C10 0.99 10 1.98 10 3 C8.35 2.67 6.7 2.34 5 2 C5 2.66 5 3.32 5 4 C5.99 4 6.98 4 8 4 C7.67 5.32 7.34 6.64 7 8 C6.34 7.67 5.68 7.34 5 7 C5 8.32 5 9.64 5 11 C6.65 10.67 8.3 10.34 10 10 C10 10.99 10 11.98 10 13 C6.7 13 3.4 13 0 13 C0 8.71 0 4.42 0 0 Z " fill="#15B5F0" transform="translate(121,310)"/>
<path d="M0 0 C3.3 0 6.6 0 10 0 C10 0.99 10 1.98 10 3 C8.35 2.67 6.7 2.34 5 2 C5 2.66 5 3.32 5 4 C5.99 4 6.98 4 8 4 C7.67 5.32 7.34 6.64 7 8 C6.34 7.67 5.68 7.34 5 7 C5 8.32 5 9.64 5 11 C6.65 10.67 8.3 10.34 10 10 C10 10.99 10 11.98 10 13 C6.7 13 3.4 13 0 13 C0 8.71 0 4.42 0 0 Z " fill="#15B5F0" transform="translate(59,310)"/>
<path d="M0 0 C5.42857143 -0.36190476 5.42857143 -0.36190476 7.875 1.1875 C9.45090926 3.72646491 9.57287294 5.06402619 9 8 C6.75 10.375 6.75 10.375 4 12 C2.68 11.67 1.36 11.34 0 11 C0 7.37 0 3.74 0 0 Z " fill="#F2F5F6" transform="translate(134,248)"/>
<path d="M0 0 C6 0 6 0 7.9375 1.6875 C9 4 9 4 9 6.5625 C7.66931811 9.8060371 6.14790736 10.57594667 3 12 C2.01 12 1.02 12 0 12 C0 8.04 0 4.08 0 0 Z " fill="#F5F7F8" transform="translate(262,248)"/>
<path d="M0 0 C1.98 0 3.96 0 6 0 C6 4.29 6 8.58 6 13 C4.02 13 2.04 13 0 13 C0 8.71 0 4.42 0 0 Z " fill="#2CBDF1" transform="translate(367,310)"/>
<path d="M0 0 C1.98 0 3.96 0 6 0 C6 4.29 6 8.58 6 13 C4.02 13 2.04 13 0 13 C0 8.71 0 4.42 0 0 Z " fill="#2CBDF1" transform="translate(209,310)"/>
<path d="M0 0 C1.98 0 3.96 0 6 0 C6 4.29 6 8.58 6 13 C4.02 13 2.04 13 0 13 C0 8.71 0 4.42 0 0 Z " fill="#2CBDF1" transform="translate(103,310)"/>
<path d="M0 0 C3.96 0 7.92 0 12 0 C11.67 0.99 11.34 1.98 11 3 C10.01 2.67 9.02 2.34 8 2 C8.33 5.63 8.66 9.26 9 13 C7.02 13 5.04 13 3 13 C3.33 9.37 3.66 5.74 4 2 C2.68 2.33 1.36 2.66 0 3 C0 2.01 0 1.02 0 0 Z " fill="#0BB2EF" transform="translate(385,310)"/>
<path d="M0 0 C1.98 0 3.96 0 6 0 C5.95875 0.9075 5.9175 1.815 5.875 2.75 C5.99531556 5.8782046 6.3914708 7.38614006 8 10 C6.1875 11.5625 6.1875 11.5625 4 13 C3.01 12.67 2.02 12.34 1 12 C0.01751476 7.9472484 -0.08159574 4.16138263 0 0 Z " fill="#2BBCF1" transform="translate(409,310)"/>
<path d="M0 0 C0 0.66 0 1.32 0 2 C-0.66 2.474375 -1.32 2.94875 -2 3.4375 C-2.99 4.2109375 -2.99 4.2109375 -4 5 C-4 5.99 -4 6.98 -4 8 C-3.01 8.66 -2.02 9.32 -1 10 C-1.33 10.99 -1.66 11.98 -2 13 C-3.98 13 -5.96 13 -8 13 C-9.56430248 9.87139505 -9.35627284 7.44397075 -9 4 C-5.8481875 0.58553646 -4.71948695 0 0 0 Z " fill="#114456" transform="translate(217,267)"/>
<path d="M0 0 C1.98 0 3.96 0 6 0 C5.67 3.63 5.34 7.26 5 11 C6.65 10.67 8.3 10.34 10 10 C10 10.99 10 11.98 10 13 C6.7 13 3.4 13 0 13 C0 8.71 0 4.42 0 0 Z " fill="#09B1EF" transform="translate(345,310)"/>
<path d="M0 0 C1.98 0 3.96 0 6 0 C5.67 3.63 5.34 7.26 5 11 C6.65 10.67 8.3 10.34 10 10 C10 10.99 10 11.98 10 13 C6.7 13 3.4 13 0 13 C0 8.71 0 4.42 0 0 Z " fill="#09B1EF" transform="translate(81,310)"/>
<path d="M0 0 C2.31 0 4.62 0 7 0 C7.33 1.32 7.66 2.64 8 4 C7.34 4 6.68 4 6 4 C5.01 6.97 4.02 9.94 3 13 C2.01 12.67 1.02 12.34 0 12 C0.33 9.36 0.66 6.72 1 4 C0.34 4 -0.32 4 -1 4 C-0.67 2.68 -0.34 1.36 0 0 Z " fill="#1A4B5C" transform="translate(326,256)"/>
<path d="M0 0 C2.31 0 4.62 0 7 0 C7.6875 1.8125 7.6875 1.8125 8 4 C6.6875 5.4375 6.6875 5.4375 5 7 C4.690625 7.86625 4.38125 8.7325 4.0625 9.625 C3.711875 10.40875 3.36125 11.1925 3 12 C1.68 12.33 0.36 12.66 -1 13 C-0.34 10.03 0.32 7.06 1 4 C0.34 4 -0.32 4 -1 4 C-0.67 2.68 -0.34 1.36 0 0 Z " fill="#164859" transform="translate(199,256)"/>
<path d="M0 0 C2.5625 0.1875 2.5625 0.1875 4.5625 2.1875 C4.90120968 8.51008065 4.90120968 8.51008065 3.5625 11.1875 C2.9025 11.1875 2.2425 11.1875 1.5625 11.1875 C0.84635417 9.46223958 0.13020833 7.73697917 -0.5859375 6.01171875 C-1.50556692 3.92216068 -1.50556692 3.92216068 -3.4375 1.1875 C-2.4375 0.1875 -2.4375 0.1875 0 0 Z " fill="#255464" transform="translate(39.4375,244.8125)"/>
<path d="M0 0 C-0.54723683 3.37462715 -1.0549 5.08235 -3 8 C-4.65 7.67 -6.3 7.34 -8 7 C-8 5.35 -8 3.7 -8 2 C-2.25 0 -2.25 0 0 0 Z " fill="#093D50" transform="translate(192,284)"/>
<path d="M0 0 C1.32 0 2.64 0 4 0 C4.1875 2.375 4.1875 2.375 4 5 C1 7 1 7 -3 7 C-2.25 2.25 -2.25 2.25 0 0 Z " fill="#EDF0F2" transform="translate(379,269)"/>
<path d="M0 0 C1.32 0 2.64 0 4 0 C4.1875 2.375 4.1875 2.375 4 5 C1 7 1 7 -1.1875 6.625 C-1.785625 6.41875 -2.38375 6.2125 -3 6 C-2.42655063 3.13275314 -2.1385485 2.1385485 0 0 Z " fill="#EEF2F3" transform="translate(215,269)"/>
<path d="M0 0 C0.99 0.33 1.98 0.66 3 1 C3.125 6.75 3.125 6.75 2 9 C1.01 8.67 0.02 8.34 -1 8 C-1.04241723 5.66705225 -1.04092937 3.33297433 -1 1 C-0.67 0.67 -0.34 0.34 0 0 Z " fill="#ECF9FD" transform="translate(276,312)"/>
<path d="M0 0 C0 3.76120097 -1.1245288 5.06182092 -3.25 8.125 C-3.85328125 9.01445313 -4.4565625 9.90390625 -5.078125 10.8203125 C-7.09872963 13.11197385 -8.02045283 13.67040407 -11 14 C-9.42219077 10.28954753 -7.09296752 7.70093616 -4.375 4.75 C-3.55773437 3.85796875 -2.74046875 2.9659375 -1.8984375 2.046875 C-1.27195313 1.37140625 -0.64546875 0.6959375 0 0 Z " fill="#CDD8DB" transform="translate(236,72)"/>
<path d="M0 0 C1.32 0 2.64 0 4 0 C3.34 2.97 2.68 5.94 2 9 C1.01 8.67 0.02 8.34 -1 8 C-0.67 5.36 -0.34 2.72 0 0 Z " fill="#2BBCF1" transform="translate(152,310)"/>
<path d="M0 0 C0.66 0.33 1.32 0.66 2 1 C2 1.66 2 2.32 2 3 C-0.97 4.65 -3.94 6.3 -7 8 C-5.61918777 3.8575633 -3.40174442 2.67796901 0 0 Z " fill="#26BBF1" transform="translate(181,198)"/>
<path d="M0 0 C-0.33 0.66 -0.66 1.32 -1 2 C-3.06640625 2.6328125 -3.06640625 2.6328125 -5.5625 3.125 C-6.38878906 3.29257813 -7.21507812 3.46015625 -8.06640625 3.6328125 C-8.70449219 3.75398438 -9.34257812 3.87515625 -10 4 C-4.63711911 -1.54570637 -4.63711911 -1.54570637 0 0 Z " fill="#D7DFE2" transform="translate(237,103)"/>
</svg>
